<svg viewBox="0 0 512 452" xmlns="http://www.w3.org/2000/svg">
	<path d="M233.226 0.954085C175.077 5.94909 119.942 31.3571 77.365 72.7801C5.09596 143.091 -18.859 247.595 15.351 343.32C24.222 368.143 41.45 397.92 59.556 419.723C68.027 429.925 89.059 450.82 90.856 450.82C91.399 450.82 93.504 449.489 95.535 447.862C97.565 446.236 117.901 434.727 140.726 422.287C166.319 408.339 183.682 398.261 186.025 395.995C188.114 393.974 191.039 389.845 192.525 386.82C195.127 381.521 195.238 380.625 195.542 362.32L195.858 343.32L189.15 333.32C180.442 320.338 172.589 304.261 168.071 290.167C165.017 280.642 163.79 278.201 160.141 274.392C153.61 267.576 152.726 263.389 152.726 239.264C152.726 216.968 153.407 213.31 158.816 206.566L161.826 202.813L161.69 170.066C161.563 139.481 161.694 136.836 163.668 129.981C172.337 99.8891 197.357 82.2521 237.515 77.9281C250.543 76.5251 260.909 76.5251 273.937 77.9281C314.418 82.2871 339.908 100.467 347.877 130.666C349.719 137.647 349.885 141.155 349.765 170.572L349.634 202.823L352.736 206.683C357.869 213.07 358.726 217.807 358.726 239.797C358.726 262.269 357.813 267.022 352.246 273.526C350.307 275.791 346.766 278.59 344.377 279.747C340.781 281.488 339.817 282.578 338.776 286.085C336.88 292.468 328.673 310.414 324.033 318.32C321.774 322.17 317.184 329.145 313.834 333.82L307.743 342.32L307.744 362.32C307.745 381.349 307.862 382.571 310.153 387.491C314.618 397.081 317.16 398.715 364.328 422.32C388.411 434.371 410.73 445.978 413.927 448.113L419.74 451.995L424.52 447.993C432.033 441.702 449.581 423.155 456.851 413.82C502.343 355.408 520.519 281.553 507.194 209.267C492.969 132.106 443.848 65.5941 374.226 29.2231C330.692 6.48108 282.16 -3.24891 233.226 0.954085Z" />
</svg>
