<svg width="50" height="50" viewBox="0 0 500 500" xmlns="http://www.w3.org/2000/svg">
<path d="M250 500C111.925 500 0 388.075 0 250C0 111.925 111.925 0 250 0C388.075 0 500 111.925 500 250C499.85 388 388 499.85 250 500ZM249.6 450H250C303.026 449.947 353.86 428.839 391.327 391.315C428.794 353.792 449.826 302.926 449.8 249.9C449.773 196.874 428.69 146.029 391.186 108.543C353.682 71.0577 302.826 50.0001 249.8 50.0001C196.774 50.0001 145.918 71.0577 108.414 108.543C70.9096 146.029 49.8265 196.874 49.8 249.9C49.7735 302.926 70.8057 353.792 108.273 391.315C145.74 428.839 196.574 449.947 249.6 450V450ZM200 375L100 275L135.25 239.75L200 304.25L364.75 139.5L400 175L200 375Z" />
</svg>
